<svg xmlns="http://www.w3.org/2000/svg" viewBox="0 0 640 220" role="img" aria-labelledby="title">
  <title id="title">COSMO</title>
  <defs>
    <linearGradient id="gold" x1="0" x2="0" y1="0" y2="1">
      <stop offset="0" stop-color="#fff6c2"/>
      <stop offset="0.45" stop-color="#e5b43f"/>
      <stop offset="1" stop-color="#8f570f"/>
    </linearGradient>
  </defs>
  <rect width="640" height="220" rx="18" fill="#071228"/>
  <path d="M320 32c42 0 76 34 76 76s-34 76-76 76-76-34-76-76 34-76 76-76Zm0 22c-30 0-54 24-54 54s24 54 54 54 54-24 54-54-24-54-54-54Z" fill="url(#gold)"/>
  <path d="M194 110c46-80 206-80 252 0-46 80-206 80-252 0Z" fill="none" stroke="url(#gold)" stroke-width="14"/>
  <text x="320" y="202" text-anchor="middle" font-family="Georgia, serif" font-size="54" font-weight="700" letter-spacing="10" fill="url(#gold)">COSMO</text>
</svg>
